<svg xmlns="http://www.w3.org/2000/svg" fill-rule="evenodd" stroke-linejoin="round" stroke-miterlimit="2" clip-rule="evenodd" viewBox="0 0 32 32" id="online-learning"><g transform="translate(-.153)"><rect width="32" height="32" fill="none"></rect><path d="M119.146,21.951L119.847,21.951L119.847,11C119.847,10.448 119.4,10 118.847,10C117.275,10 115.347,10 115.347,10C114.795,10 114.347,9.552 114.347,9C114.347,8.448 114.795,8 115.347,8C115.347,8 117.275,8 118.847,8C120.504,8 121.847,9.343 121.847,11L121.847,21.951L122.847,21.951C123.4,21.951 123.847,22.399 123.847,22.951C123.847,22.951 123.847,23.426 123.847,24C123.847,24.796 123.531,25.559 122.969,26.121C122.406,26.684 121.643,27 120.847,27L98.847,27C98.052,27 97.289,26.684 96.726,26.121C96.163,25.559 95.847,24.796 95.847,24L95.847,22.951C95.847,22.399 96.295,21.951 96.847,21.951L97.847,21.951L97.847,11C97.847,9.343 99.191,8 100.847,8L104.347,8C104.899,8 105.347,8.448 105.347,9C105.347,9.552 104.899,10 104.347,10C104.347,10 102.42,10 100.847,10C100.295,10 99.847,10.448 99.847,11L99.847,21.951L100.549,21.951L101.297,18.659C102.007,15.532 104.786,13.313 107.993,13.313L109.161,13.313C109.174,13.313 109.187,13.313 109.199,13.313L110.495,13.313C110.508,13.313 110.521,13.313 110.534,13.313L111.702,13.313C114.909,13.313 117.688,15.532 118.398,18.659L119.146,21.951ZM110.847,23.951L110.847,25L120.847,25C121.113,25 121.367,24.895 121.555,24.707C121.742,24.52 121.847,24.265 121.847,24L121.847,23.951L110.847,23.951ZM108.847,23.951L97.847,23.951L97.847,24C97.847,24.265 97.953,24.52 98.14,24.707C98.328,24.895 98.582,25 98.847,25L108.847,25L108.847,23.951ZM107.899,15.314C105.666,15.357 103.743,16.917 103.247,19.102L102.6,21.951L109.733,21.951C109.579,21.934 109.428,21.88 109.294,21.791L107.294,20.462C106.941,20.228 106.774,19.796 106.877,19.386L107.899,15.314ZM111.796,15.314L112.817,19.386C112.92,19.796 112.754,20.228 112.401,20.462L110.401,21.791C110.266,21.88 110.116,21.934 109.962,21.951L117.095,21.951L116.448,19.102C115.952,16.917 114.029,15.357 111.796,15.314ZM108.989,19.187L109.847,19.757L110.706,19.187L109.847,15.766L108.989,19.187ZM109.847,5C107.671,5 105.895,6.788 105.895,9C105.895,11.212 107.671,13 109.847,13C112.024,13 113.799,11.212 113.799,9C113.799,6.788 112.024,5 109.847,5ZM109.847,7C110.929,7 111.799,7.901 111.799,9C111.799,10.099 110.929,11 109.847,11C108.766,11 107.895,10.099 107.895,9C107.895,7.901 108.766,7 109.847,7Z" transform="translate(-93.847)"></path></g></svg>